<?xml version="1.0" encoding="UTF-8"?>
<svg version="1.1" xmlns="http://www.w3.org/2000/svg" width="46" height="46">
<path d="M0 0 C4.40608743 2.16298837 7.1987497 4.39680479 9 9 C9.68426057 14.04325384 9.5739862 17.83076884 7.3125 22.4375 C4.28115306 25.79656012 2.25860352 27.69355631 -2.33203125 28.31640625 C-8.04951809 28.58213652 -11.60250453 27.96847152 -16 24 C-19.38570467 20.16286804 -19.51291172 16.36598538 -19.3515625 11.4375 C-18.67904883 6.77473854 -16.30117669 4.14809708 -12.875 1.125 C-8.55651358 -0.56484251 -4.5732948 -0.65960983 0 0 Z M-15 8 C-16.61429923 11.22859847 -16.59570657 14.50993653 -16 18 C-14.26397895 21.02508145 -12.16419863 23.41790069 -9 25 C-3.87629602 25.60728845 -3.87629602 25.60728845 0.82421875 23.953125 C4.62752744 20.82207185 5.88663367 19.13366332 6.375 14.25 C6.35058775 10.89941932 5.75601354 9.15105468 3.625 6.5625 C0.0951414 3.11668565 -1.9283652 2.60444164 -6.89453125 2.640625 C-10.61593453 3.27581814 -12.40312849 5.33979016 -15 8 Z " fill="#000000" transform="translate(28,9)"/>
<path d="M0 0 C0.66 0 1.32 0 2 0 C2 2.31 2 4.62 2 7 C4.31 7 6.62 7 9 7 C9.33 7.99 9.66 8.98 10 10 C8.35425434 10.02688151 6.70838587 10.04634123 5.0625 10.0625 C4.14597656 10.07410156 3.22945312 10.08570313 2.28515625 10.09765625 C0 10 0 10 -1 9 C-1.1328125 7.1875 -1.1328125 7.1875 -1.125 5 C-1.12757812 4.278125 -1.13015625 3.55625 -1.1328125 2.8125 C-1 1 -1 1 0 0 Z " fill="#000000" transform="translate(22,14)"/>
</svg>
