<?xml version="1.0" encoding="UTF-8"?>
<svg version="1.1" xmlns="http://www.w3.org/2000/svg" width="46" height="46">
<path d="M0 0 C4.62 0 9.24 0 14 0 C14 1.98 14 3.96 14 6 C16.64 6 19.28 6 22 6 C22 8.31 22 10.62 22 13 C20.68 13 19.36 13 18 13 C18 11.68 18 10.36 18 9 C10.74 9 3.48 9 -4 9 C-4 13.95 -4 18.9 -4 24 C-0.7 24 2.6 24 6 24 C6 25.32 6 26.64 6 28 C1.38 28 -3.24 28 -8 28 C-8 20.74 -8 13.48 -8 6 C-5.36 6 -2.72 6 0 6 C0 4.02 0 2.04 0 0 Z M4 4 C4 4.66 4 5.32 4 6 C5.98 6 7.96 6 10 6 C10 5.34 10 4.68 10 4 C8.02 4 6.04 4 4 4 Z " fill="#000000" transform="translate(16,9)"/>
<path d="M0 0 C2.5 2.125 2.5 2.125 4 5 C4.07481382 9.26438773 3.64839572 11.23718151 0.875 14.5 C-2.97148295 16.50686067 -4.88546541 16.27176524 -9 15 C-11.5 12.875 -11.5 12.875 -13 10 C-13.07481382 5.73561227 -12.64839572 3.76281849 -9.875 0.5 C-6.02851705 -1.50686067 -4.11453459 -1.27176524 0 0 Z M-6 3 C-5.01 3.33 -4.02 3.66 -3 4 C-2.4375 5.9375 -2.4375 5.9375 -2 8 C-1.34 8.66 -0.68 9.32 0 10 C-0.33 8.02 -0.66 6.04 -1 4 C-2.65 3.67 -4.3 3.34 -6 3 Z M-8 4 C-8.6878236 6.35367713 -8.6878236 6.35367713 -9 9 C-8.01 10.485 -8.01 10.485 -7 12 C-5.68 11.67 -4.36 11.34 -3 11 C-3.66 10.34 -4.32 9.68 -5 9 C-5.625 6.375 -5.625 6.375 -6 4 C-6.66 4 -7.32 4 -8 4 Z " fill="#000000" transform="translate(36,24)"/>
</svg>
